<svg width="26" height="26" viewBox="0 0 26 26" fill="none" xmlns="http://www.w3.org/2000/svg">
<g clip-path="url(#clip0_731_741)">
<path d="M4.51968 19.627C4.01187 19.627 3.52945 19.8352 3.17398 20.1957C2.82866 20.541 2.64077 21.0082 2.64585 21.4957C2.66616 22.4961 3.48374 23.2934 4.48413 23.2984H23.8623C23.4154 22.2066 23.456 20.9879 24.0248 19.627H4.51968Z" fill="#27348B"/>
<path d="M25.4973 18.2105C25.4973 17.8094 25.1723 17.4895 24.7711 17.4844H4.47893C2.28011 17.5098 0.523075 19.3125 0.543387 21.5063C0.568778 23.6695 2.31565 25.4164 4.47893 25.4418H24.7711C25.1723 25.452 25.5024 25.1371 25.5125 24.7359C25.5227 24.3348 25.2078 24.0047 24.8067 23.9945C24.7914 23.9945 24.7813 23.9945 24.766 23.9945H4.47893C3.10276 23.9895 1.9805 22.8824 1.95003 21.5063C1.93987 20.8309 2.19886 20.1859 2.6762 19.7086C3.1637 19.216 3.82893 18.9367 4.51956 18.9367H24.7762C25.1723 18.9316 25.4973 18.6117 25.4973 18.2105Z" fill="#27348B"/>
<path d="M11.3802 12.0553L4.23022 9.04395V14.4014C4.23022 15.4982 5.12397 16.392 6.22085 16.392H18.6064C19.7083 16.392 20.597 15.5033 20.597 14.4014V9.04395L13.447 12.0553C12.7869 12.3346 12.0404 12.3346 11.3802 12.0553Z" fill="#27348B"/>
<path d="M25.9086 15.4225L24.2938 12.6295V7.48535L23.0496 8.0084V12.6295L21.4348 15.4225C21.252 15.7373 21.3586 16.1436 21.6735 16.3264C21.775 16.3822 21.8868 16.4178 22.0035 16.4127H25.3399C25.7055 16.4127 26 16.1182 26 15.7525C26 15.6357 25.9696 15.524 25.9086 15.4225Z" fill="#27348B"/>
<path d="M13.1778 11.4155L24.4157 6.68271C24.7559 6.54053 24.9184 6.14443 24.7711 5.8042C24.7051 5.6417 24.5731 5.51475 24.4157 5.44873L13.1778 0.71084C12.6903 0.502637 12.1368 0.502637 11.6493 0.71084L0.411366 5.44873C0.0711315 5.59092 -0.0913685 5.98701 0.0558971 6.32725C0.121913 6.48975 0.253944 6.6167 0.411366 6.68271L11.6493 11.4155C12.1368 11.6237 12.6903 11.6237 13.1778 11.4155Z" fill="#27348B"/>
</g>
<defs>
<clipPath id="clip0_731_741">
<rect width="26" height="26" fill="white"/>
</clipPath>
</defs>
</svg>
