<svg width="32" height="32" viewBox="0 0 32 32" fill="none" xmlns="http://www.w3.org/2000/svg">
<path d="M9.9031 11.4752C9.97783 11.6268 10.0908 11.7552 10.2304 11.8473C10.37 11.9394 10.5311 11.9918 10.6971 11.9991C10.8631 12.0064 11.0281 11.9684 11.1749 11.889C11.3217 11.8095 11.4452 11.6915 11.5324 11.5471C11.6697 11.4319 11.9845 9.34555 12.049 9.14568C12.068 9.04302 12.1216 8.9504 12.2005 8.88386C12.2793 8.81732 12.3786 8.78106 12.4809 8.78138H14.4577C15.2614 8.80854 16.061 8.65273 16.7985 8.32524C17.5359 7.99776 18.1927 7.50681 18.7211 6.88802C19.3738 6.27441 19.7648 7.48898 20.0124 8.02879C20.3077 8.83607 20.4803 9.68472 20.5242 10.5453C20.5393 10.7563 20.6231 10.956 20.7623 11.1126C20.9015 11.2693 21.0881 11.3739 21.2923 11.4097C21.4965 11.4456 21.7065 11.4106 21.889 11.3104C22.0715 11.2102 22.2158 11.0505 22.2991 10.8568C23.7359 7.3338 22.9424 4.52013 20.1157 3.12045C16.0689 -2.3347 5.93885 3.55774 9.9031 11.4752Z" fill="#27348B"/>
<path d="M9.92557 21C8.05526 21.6475 5.67524 22.0893 5.21751 24.2612L4.52451 29.0207H3.48264C3.35383 29.023 3.23109 29.0756 3.14083 29.1672C3.05057 29.2588 3 29.382 3 29.5104C3 29.6387 3.05058 29.7619 3.14085 29.8535C3.23112 29.9451 3.35386 29.9977 3.48267 30H7.98432C8.03065 29.334 8.23877 26.9357 8.29393 26.2296C8.35226 25.7392 8.59027 25.2876 8.9623 24.9614C9.42074 24.6581 10.2531 22.2603 9.92557 21Z" fill="#27348B"/>
<path d="M11.9406 12.7194C11.6625 12.9058 11.3366 13.0118 11 13.0253C11.1232 13.4256 11.2909 13.8115 11.5 14.176C11.9381 14.9406 12.5551 15.5922 13.3003 16.0771C14.0454 16.562 14.8974 16.8663 15.786 16.9649C16.6746 17.0635 17.5743 16.9536 18.4111 16.6443C19.2479 16.335 19.9978 15.8351 20.599 15.1858C21.3226 14.3998 21.8078 13.4312 22 12.3892C21.5364 12.3626 21.0994 12.168 20.7737 11.8433C20.4481 11.5185 20.257 11.0867 20.2376 10.6316C20.2024 9.72188 19.9854 8.82777 19.599 8C17.9587 9.61356 15.4455 9.86083 13.1732 9.74776C12.9339 10.6909 12.9449 12.2083 11.9406 12.7194Z" fill="#27348B"/>
<path d="M18.6675 18C17.827 18.3909 16.9166 18.5951 15.9952 18.5995C15.0738 18.604 14.1617 18.4085 13.3176 18.0257C13.3135 18.0512 13.3118 18.077 13.3127 18.1028C13.2811 18.5844 13.4431 19.5841 13.0695 19.9631C13.0503 19.9939 13.0269 20.0216 13 20.0453L13.2333 20.2868L13.7047 20.7751C15.0223 22.4033 16.965 22.4065 18.3003 20.7956C18.4568 20.6223 18.8437 20.2329 19 20.0659C18.4847 19.5738 18.7295 18.6382 18.6675 18Z" fill="#27348B"/>
<path d="M20.1993 20L20.0375 20.1865C19.9868 21.1892 19.993 23.1312 20.0237 23.6425C20.2131 27.1762 21.9832 28.5233 23 29L22.8059 26.3782C22.7752 26.1266 22.6634 25.8962 22.4916 25.7306C21.8021 25.1608 20.8777 22.2289 21.3085 20.4197L20.1993 20Z" fill="#27348B"/>
<path d="M9.50842 25.7324C9.33282 25.904 9.21937 26.1416 9.18951 26.4005L9 29C10.0168 28.5236 11.787 27.1772 11.9765 23.6456C12.013 23.0703 12.0071 21.156 11.958 20.1502L11.824 20L10.687 20.4298C11.1111 22.2385 10.2007 25.1627 9.50842 25.7324Z" fill="#27348B"/>
<path d="M21.3567 28.9714C19.2426 27.442 18.4932 24.7162 18.6909 21.0411C18.5319 21.2124 18.3573 21.3674 18.1695 21.504C17.4366 22.0429 16.5401 22.2887 15.6457 22.1961C14.7514 22.1034 13.9197 21.6786 13.3042 21C13.5672 25.5058 12.3729 28.5932 9.00986 29.856L9 30H23L22.9901 29.8508C22.4061 29.6443 21.8555 29.3478 21.3567 28.9714Z" fill="#27348B"/>
<path d="M28.5175 29.0212H27.476L26.7784 24.2251C26.612 23.6376 26.2976 23.1021 25.8651 22.6696C25.4326 22.237 24.8964 21.9217 24.3072 21.7537L22.0719 21C21.7515 22.2614 22.5793 24.6637 23.0398 24.9641C23.4076 25.2845 23.6438 25.7289 23.7029 26.2121C23.7657 26.9296 23.9606 29.3199 24.0173 30H28.5175C28.6463 29.9977 28.769 29.9451 28.8592 29.8536C28.9494 29.762 29 29.6389 29 29.5106C29 29.3823 28.9494 29.2592 28.8592 29.1676C28.769 29.0761 28.6463 29.0235 28.5175 29.0212Z" fill="#27348B"/>
<path d="M11.8647 19.1781V18.1263C11.8636 17.8916 11.9097 17.6593 12 17.4449C11.1478 16.8302 10.4537 16.0004 9.98041 15.0305C9.68357 14.9796 9.38009 14.9925 9.08808 15.0686C8.79608 15.1446 8.52152 15.2821 8.28081 15.4728C8.04009 15.6636 7.83814 15.9038 7.68701 16.179C7.53588 16.4542 7.43866 16.7588 7.40116 17.0747L7 21C7.24637 20.8868 11.9257 19.2726 11.8647 19.1781Z" fill="#27348B"/>
<path d="M21.9545 15.0171C21.4885 15.9631 20.8187 16.7781 20 17.3954C20.0914 17.615 20.1389 17.8524 20.1393 18.0926V19.1705C20.21 19.2349 20.2921 19.2836 20.3807 19.3139L23.8394 20.5599C24.1133 20.655 24.7435 20.8769 25 21L24.6008 17.0642C24.4321 15.6052 23.2569 14.8766 21.9545 15.0171Z" fill="#27348B"/>
</svg>
